{"title":"Viva-Sweet-Sexy-Euro-Slut[truehdporn].mp4","uid":7546251,"size":272475342,"categoryP":"porn","categoryS":"movies","magnet":"?xt=urn:btih:4cb47f70728cef37207e63e54dd2ee15bcd075b2&amp;dn=Viva-Sweet-Sexy-Euro-Slut%5Btruehdporn%5D.mp4&amp;tr=udp%3A%2F%2Ftracker.openbittorrent.com%3A80&amp;tr=udp%3A%2F%2Fopen.demonii.com%3A1337&amp;tr=udp%3A%2F%2Ftracker.coppersurfer.tk%3A6969&amp;tr=udp%3A%2F%2Fexodus.desync.com%3A6969","seeders":0,"leechers":1,"uploader":"hdporn","files":1,"time":1345355505,"description":"Format : MPEG-4\nFormat profile : Base Media\nCodec ID : isom\nFile size : 260 MiB\nDuration : 20mn 0s\nOverall bit rate mode : Variable\nOverall bit rate : 1 815 Kbps\n\nVideo\nID : 1\nFormat : AVC\nFormat/Info : Advanced Video Codec\nFormat profile : &lt;a class=&quot;__cf_email__&quot; href=&quot;/cdn-cgi/l/email-protection&quot; data-cfemail=&quot;cb83a2aca38b87f8e5fa&quot;&gt;[email&amp;#160;protected]&lt;/a&gt;&lt;script data-cfhash='f9e31' type=&quot;text/javascript&quot;&gt;\n/* &lt;![CDATA[ */!function(){try{var t=&quot;currentScript&quot;in document?document.currentScript:function(){for(var t=document.getElementsByTagName(&quot;script&quot;),e=t.length;e--;)if(t[e].getAttribute(&quot;data-cfhash&quot;))return t[e]}();if(t&amp;&amp;t.previousSibling){var e,r,n,i,c=t.previousSibling,a=c.getAttribute(&quot;data-cfemail&quot;);if(a){for(e=&quot;&quot;,r=parseInt(a.substr(0,2),16),n=2;a.length-n;n+=2)i=parseInt(a.substr(n,2),16)^r,e+=String.fromCharCode(i);e=document.createTextNode(e),c.parentNode.replaceChild(e,c)}t.parentNode.removeChild(t);}}catch(u){}}()/* ]]&gt; */&lt;/script&gt;\nFormat settings, CABAC : Yes\nFormat settings, ReFrames : 4 frames\nCodec ID : avc1\nCodec ID/Info : Advanced Video Coding\nDuration : 20mn 0s\nBit rate mode : Variable\nBit rate : 1 761 Kbps\nWidth : 1 280 pixels\nHeight : 720 pixels\nDisplay aspect ratio : 16:9\nFrame rate mode : Constant\nFrame rate : 25.000 fps\nColor space : YUV\nChroma subsampling : 4:2:0\nBit depth : 8 bits\nScan type : Progressive\nBits/(Pixel*Frame) : 0.076\nStream size : 252 MiB (97%)\n\nAudio\nID : 2\nFormat : AAC\nFormat/Info : Advanced Audio Codec\nFormat profile : LC\nCodec ID : 40\nDuration : 20mn 0s\nBit rate mode : Variable\nBit rate : 48.0 Kbps\nChannel(s) : 2 channels\nChannel positions : Front: L R\nSampling rate : 44.1 KHz\nCompression mode : Lossy\nDelay relative to video : -2ms\nStream size : 7.00 MiB (3%)\n\nSCREENSHOT....\n &lt;a href=&quot;\nhttp://www.pixsor.com/share-48A8_5030640A.html&quot; rel=&quot;nofollow&quot; target=&quot;_NEW&quot;&gt;\nhttp://www.pixsor.com/share-48A8_5030640A.html&lt;/a&gt;","torrent":{"xt":"urn:btih:4cb47f70728cef37207e63e54dd2ee15bcd075b2","amp;dn":"Viva-Sweet-Sexy-Euro-Slut%5Btruehdporn%5D.mp4","amp;tr":["udp%3A%2F%2Ftracker.openbittorrent.com%3A80","udp%3A%2F%2Fopen.demonii.com%3A1337","udp%3A%2F%2Ftracker.coppersurfer.tk%3A6969","udp%3A%2F%2Fexodus.desync.com%3A6969"],"infoHash":"4cb47f70728cef37207e63e54dd2ee15bcd075b2","infoHashBuffer":{"type":"Buffer","data":[76,180,127,112,114,140,239,55,32,126,99,229,77,210,238,21,188,208,117,178]},"announce":[],"urlList":[]}}